name Walk10.mot
datacolumns 19
datarows 15
range 3.48400000 3.49800000
endheader

                time	   L_ground_force_vx	   L_ground_force_vy	   L_ground_force_vz	   L_ground_force_px	   L_ground_force_py	   L_ground_force_pz	   R_ground_force_vx	   R_ground_force_vy	   R_ground_force_vz	   R_ground_force_px	   R_ground_force_py	   R_ground_force_pz	   L_ground_torque_x	   L_ground_torque_y	   L_ground_torque_z	   R_ground_torque_x	   R_ground_torque_y	   R_ground_torque_z	
          3.48400000	          0.00000000	          0.00000000	         -0.00000000	         -0.00000000	          0.00000000	         -0.00000000	         32.65084436	        141.13280370	          1.35667562	          0.28070761	          0.00000000	          0.06624126	          0.00000000	          0.00000000	          0.00000000	          0.00000000	         -7.09121483	          0.00000000	
          3.48500000	          0.00000000	          0.00000000	         -0.00000000	         -0.00000000	          0.00000000	         -0.00000000	         31.46821245	        134.71871194	          1.44732016	          0.27732653	          0.00000000	          0.06528677	          0.00000000	          0.00000000	          0.00000000	          0.00000000	         -6.87428769	          0.00000000	
          3.48600000	          0.00000000	          0.00000000	         -0.00000000	         -0.00000000	          0.00000000	         -0.00000000	         30.28843102	        128.42724632	          1.52726713	          0.27374770	          0.00000000	          0.06429090	          0.00000000	          0.00000000	          0.00000000	          0.00000000	         -6.65576766	          0.00000000	
          3.48700000	          0.00000000	          0.00000000	         -0.00000000	         -0.00000000	          0.00000000	         -0.00000000	         29.11326335	        122.26227935	          1.59691179	          0.26996828	          0.00000000	          0.06325323	          0.00000000	          0.00000000	          0.00000000	          0.00000000	         -6.43602164	          0.00000000	
          3.48800000	          0.00000000	          0.00000000	         -0.00000000	         -0.00000000	          0.00000000	         -0.00000000	         27.94447371	        116.22751121	          1.65665934	          0.26598597	          0.00000000	          0.06217345	          0.00000000	          0.00000000	          0.00000000	          0.00000000	         -6.21542057	          0.00000000	
          3.48900000	          0.00000000	          0.00000000	         -0.00000000	         -0.00000000	          0.00000000	         -0.00000000	         26.78381963	        110.32646204	          1.70692364	          0.26179914	          0.00000000	          0.06105142	          0.00000000	          0.00000000	          0.00000000	          0.00000000	         -5.99433795	          0.00000000	
          3.49000000	          0.00000000	          0.00000000	         -0.00000000	         -0.00000000	          0.00000000	         -0.00000000	         25.63304443	        104.56246355	          1.74812624	          0.25740687	          0.00000000	          0.05988714	          0.00000000	          0.00000000	          0.00000000	          0.00000000	         -5.77314865	          0.00000000	
          3.49100000	          0.00000000	          0.00000000	         -0.00000000	         -0.00000000	          0.00000000	         -0.00000000	         24.49386982	         98.93865070	          1.78069545	          0.25280897	          0.00000000	          0.05868083	          0.00000000	          0.00000000	          0.00000000	          0.00000000	         -5.55222798	          0.00000000	
          3.49200000	          0.00000000	          0.00000000	         -0.00000000	         -0.00000000	          0.00000000	         -0.00000000	         23.36798882	         93.45795308	          1.80506539	          0.24800613	          0.00000000	          0.05743288	          0.00000000	          0.00000000	          0.00000000	          0.00000000	         -5.33195085	          0.00000000	
          3.49300000	          0.00000000	          0.00000000	         -0.00000000	         -0.00000000	          0.00000000	         -0.00000000	         22.25705857	         88.12308628	          1.82167476	          0.24299993	          0.00000000	          0.05614396	          0.00000000	          0.00000000	          0.00000000	          0.00000000	         -5.11269099	          0.00000000	
          3.49400000	          0.00000000	          0.00000000	         -0.00000000	         -0.00000000	          0.00000000	         -0.00000000	         21.16269328	         82.93654293	          1.83096524	          0.23779299	          0.00000000	          0.05481495	          0.00000000	          0.00000000	          0.00000000	          0.00000000	         -4.89481984	          0.00000000	
          3.49500000	          0.00000000	          0.00000000	         -0.00000000	         -0.00000000	          0.00000000	         -0.00000000	         20.08645720	         77.90058334	          1.83337961	          0.23238906	          0.00000000	          0.05344705	          0.00000000	          0.00000000	          0.00000000	          0.00000000	         -4.67870526	          0.00000000	
          3.49600000	          0.00000000	          0.00000000	         -0.00000000	         -0.00000000	          0.00000000	         -0.00000000	         19.02985774	         73.01722582	          1.82935987	          0.22679311	          0.00000000	          0.05204174	          0.00000000	          0.00000000	          0.00000000	          0.00000000	         -4.46470992	          0.00000000	
          3.49700000	          0.00000000	          0.00000000	         -0.00000000	         -0.00000000	          0.00000000	         -0.00000000	         17.99433858	         68.28823709	          1.81934552	          0.22101147	          0.00000000	          0.05060077	          0.00000000	          0.00000000	          0.00000000	          0.00000000	         -4.25318985	          0.00000000	
          3.49800000	          0.00000000	         -0.00000000	         -0.00000000	         -0.00000000	          0.00000000	         -0.00000000	         16.98127280	         63.71512358	          1.80377231	          0.21505190	          0.00000000	          0.04912620	          0.00000000	          0.00000000	          0.00000000	          0.00000000	         -4.04449289	          0.00000000	
